<!--?xml version="1.0" encoding="utf-8"?-->
<!-- Generator: Adobe Illustrator 18.1.1, SVG Export Plug-In . SVG Version: 6.00 Build 0)  -->

<svg version="1.1" id="_x32_" xmlns="http://www.w3.org/2000/svg" xmlns:xlink="http://www.w3.org/1999/xlink" x="0px" y="0px" viewBox="0 0 512 512" style="width: 256px; height: 256px; opacity: 1;" xml:space="preserve">
<style type="text/css">
	.st0{fill:#4B4B4B;}
</style>
<g>
	<path class="st0" d="M156.332,192.056c-5.923,8.064-5.048,18.79,1.968,23.937l84.616,65.279c0.365,0.273,0.784,0.438,1.184,0.674
		c0.183,0.1,0.347,0.209,0.529,0.291c7.308,4.074,17.004,1.914,23.455-5.194c0.182-0.2,0.383-0.337,0.565-0.537l103.714-122.694
		c5.905-6.625,5.996-16.147,0.256-21.259c-5.759-5.121-15.199-3.891-21.086,2.724l-96.935,103.56l-74.846-52.122
		C172.752,181.568,162.255,183.955,156.332,192.056z" style="fill: rgb(75, 75, 75);"></path>
	<path class="st0" d="M52.964,255.995c0-4.474,0.086-8.956,0.56-13.358H0.41C0.087,247.038,0,251.521,0,255.995
		c0,4.566,0.087,8.967,0.41,13.367h53.115C53.05,264.962,52.964,260.478,52.964,255.995z" style="fill: rgb(75, 75, 75);"></path>
	<path class="st0" d="M511.599,242.637h-53.114h-0.565v26.725h0.565h53.114c0.324-4.4,0.401-8.884,0.401-13.367
		C512,251.521,511.923,247.038,511.599,242.637z" style="fill: rgb(75, 75, 75);"></path>
	<path class="st0" d="M146.905,84.733c5.016-3.17,10.143-6.168,15.346-8.82c0.719-0.356,1.33-0.71,2.031-0.975l-26.47-45.998
		c-6.619,3.363-13.08,7.072-19.345,11.126l26.485,45.998C145.58,85.618,146.281,85.18,146.905,84.733z" style="fill: rgb(75, 75, 75);"></path>
	<path class="st0" d="M28.972,137.802l45.98,26.471l11.126-19.326L40.08,118.457C36.016,124.726,32.312,131.168,28.972,137.802z" style="fill: rgb(75, 75, 75);"></path>
	<path class="st0" d="M436.096,349.74c-2.752,5.203-5.658,10.324-8.921,15.262c-0.437,0.629-0.897,1.33-1.33,1.95l45.998,26.47
		c4.064-6.26,7.768-12.61,11.202-19.226l-45.892-26.562C436.798,348.328,436.438,349.039,436.096,349.74z" style="fill: rgb(75, 75, 75);"></path>
	<path class="st0" d="M75.922,349.658l-1.057-2.023l-45.893,26.471c3.262,6.634,7.044,13.057,11.108,19.317l45.998-26.47
		c-0.433-0.62-0.893-1.321-1.331-1.95C81.581,360.064,78.578,354.943,75.922,349.658z" style="fill: rgb(75, 75, 75);"></path>
	<path class="st0" d="M483.046,137.802c-3.357-6.633-7.139-13.075-11.202-19.344l-45.998,26.489l11.212,19.326L483.046,137.802z" style="fill: rgb(75, 75, 75);"></path>
	<path class="st0" d="M146.905,427.157c-0.624-0.438-1.325-0.884-1.954-1.33l-26.485,45.998c6.265,4.064,12.726,7.855,19.345,11.226
		l26.47-46.008c-0.702-0.254-1.312-0.619-2.031-0.966C157.048,433.417,151.921,430.428,146.905,427.157z" style="fill: rgb(75, 75, 75);"></path>
	<path class="st0" d="M347.64,74.838l19.332,11.226l26.484-45.998c-6.264-4.054-12.629-7.763-19.24-11.126L347.64,74.838z" style="fill: rgb(75, 75, 75);"></path>
	<path class="st0" d="M242.637,458.475v53.042C247.048,511.918,251.522,512,256,512c4.484,0,8.962-0.082,13.368-0.483v-53.042
		v-0.555h-26.731V458.475z" style="fill: rgb(75, 75, 75);"></path>
	<path class="st0" d="M269.368,53.524V0.482C264.962,0.082,260.483,0,256,0c-4.478,0-8.952,0.082-13.363,0.482v53.042v0.556h26.731
		V53.524z" style="fill: rgb(75, 75, 75);"></path>
	<path class="st0" d="M347.64,437.144l26.576,45.907c6.611-3.454,12.976-7.162,19.24-11.226l-26.484-45.998L347.64,437.144z" style="fill: rgb(75, 75, 75);"></path>
</g>
</svg>
